<?xml version="1.0" encoding="utf-8"?>
<!-- Generator: Adobe Illustrator 12.0.0, SVG Export Plug-In . SVG Version: 6.00 Build 51448)  -->
<!DOCTYPE svg PUBLIC "-//W3C//DTD SVG 1.1//EN" "http://www.w3.org/Graphics/SVG/1.1/DTD/svg11.dtd" [
	<!ENTITY ns_svg "http://www.w3.org/2000/svg">
	<!ENTITY ns_xlink "http://www.w3.org/1999/xlink">
]>
<svg  version="1.1" id="Layer_1" xmlns="&ns_svg;" xmlns:xlink="&ns_xlink;" width="239.5" height="51.75"
	 viewBox="0 0 239.5 51.75" overflow="visible" enable-background="new 0 0 239.5 51.75" xml:space="preserve">
<rect fill="#1B2938" width="239.5" height="51.75"/>
<g>
	<circle fill="#FFFFFF" cx="11.864" cy="12.021" r="3.028"/>
	<g>
		<circle fill="#FFFFFF" cx="227.634" cy="39.98" r="3.027"/>
		<g>
			<path fill="#FFFFFF" d="M44.524,9.809V14.3H34.091V42.23h-5.297v-27.93H18.36V9.809H44.524z"/>
			<path fill="#FFFFFF" d="M53.689,9.809V42.23h-5.265V9.809H53.689z"/>
			<path fill="#FFFFFF" d="M63.276,9.809L74.75,34.972L86.223,9.809h5.038V42.23h-5.298V23.161l-8.743,19.07h-4.94l-8.742-19.07
				v19.07H58.24V9.809H63.276z"/>
			<path fill="#FFFFFF" d="M123.973,13.977c1.549,1.428,2.778,3.181,3.688,5.263c0.909,2.082,1.364,4.343,1.364,6.781
				c0,2.44-0.455,4.701-1.364,6.782c-0.91,2.083-2.142,3.834-3.688,5.26c-1.55,1.428-3.363,2.539-5.444,3.34
				c-2.08,0.801-4.279,1.197-6.598,1.197c-2.319,0-4.518-0.396-6.598-1.197s-3.896-1.912-5.444-3.34
				c-1.548-1.426-2.778-3.178-3.688-5.26c-0.91-2.081-1.365-4.341-1.365-6.782c0-2.439,0.455-4.699,1.365-6.781
				c0.91-2.082,2.14-3.835,3.688-5.263c1.549-1.425,3.364-2.537,5.444-3.337s4.279-1.2,6.598-1.2c2.319,0,4.518,0.4,6.598,1.199
				C120.609,11.439,122.423,12.553,123.973,13.977z M111.931,14.454c-3.488,0-6.295,0.982-8.418,2.953
				c-2.254,2.092-3.38,4.963-3.38,8.611c0,3.65,1.126,6.521,3.38,8.614c2.123,1.969,4.93,2.953,8.418,2.953
				c3.488,0,6.294-0.984,8.418-2.953c2.252-2.092,3.379-4.963,3.379-8.614c0-3.649-1.127-6.521-3.379-8.611
				C118.225,15.438,115.419,14.454,111.931,14.454z"/>
			<path fill="#FFFFFF" d="M156.49,9.809V14.3h-10.434V42.23h-5.298v-27.93h-10.433V9.809H156.49z"/>
			<path fill="#FFFFFF" d="M165.003,9.809v13.658h15.603V9.809h5.268V42.23h-5.268V28.174h-15.603v14.058h-5.265V9.809H165.003z"/>
			<path fill="#FFFFFF" d="M195.459,9.809l9.652,13.781l9.652-13.781h6.663l-13.649,19.072v13.35h-5.299v-13.35L188.794,9.809
				H195.459z"/>
		</g>
		<rect x="9.203" y="18.783" fill="#FFFFFF" width="5.265" height="23.451"/>
		<rect x="224.99" y="9.813" fill="#FFFFFF" width="5.268" height="23.45"/>
	</g>
</g>
</svg>
