<?xml version="1.0" encoding="utf-8"?>
<!-- Generator: Adobe Illustrator 15.1.0, SVG Export Plug-In . SVG Version: 6.00 Build 0)  -->
<!DOCTYPE svg PUBLIC "-//W3C//DTD SVG 1.1//EN" "http://www.w3.org/Graphics/SVG/1.1/DTD/svg11.dtd">
<svg version="1.1" id="Layer_1" xmlns="http://www.w3.org/2000/svg" xmlns:xlink="http://www.w3.org/1999/xlink" x="0px" y="0px"
	 width="216.851px" height="58.393px" viewBox="53.863 45.029 216.851 58.393" enable-background="new 0 0 566.929 425.197"
	 xml:space="preserve">
<g>
	<g>
		<g>
			<g>
				<rect x="53.863" y="45.029" opacity="0" fill="#FFFFFF" width="216.851" height="58.393"/>
			</g>
		</g>
	</g>
</g>
<g>
	<path fill="#474747" d="M123.053,84.855h-1.354l-3.094-8.692c-0.256-0.715-0.562-1.61-0.869-2.632h-0.051
		c-0.306,0.997-0.613,1.841-0.894,2.632l-3.222,8.692h-1.38l-5.854-16.924h2.021l3.758,11.248c0.306,0.946,0.587,1.789,0.817,2.633
		h0.049c0.231-0.818,0.562-1.661,0.895-2.581l2.917-7.977l-1.151-3.323h1.969l3.859,11.145c0.331,0.973,0.665,1.789,0.896,2.608
		h0.05c0.204-0.845,0.434-1.61,0.741-2.529l3.681-11.224h1.969L123.053,84.855z"/>
	<path fill="#474747" d="M137.682,83.602c-0.947,0.971-2.276,1.509-3.836,1.509c-1.508,0-2.812-0.512-3.757-1.483
		c-1.099-1.123-1.688-2.836-1.688-4.831c0-1.993,0.615-3.655,1.688-4.779c0.972-0.996,2.274-1.56,3.783-1.56
		c1.56,0,2.863,0.563,3.836,1.56c1.071,1.124,1.686,2.786,1.686,4.779C139.395,80.792,138.78,82.478,137.682,83.602 M133.872,74.042
		c-2.276,0-3.578,1.841-3.578,4.704c0,2.861,1.354,4.755,3.604,4.755s3.604-1.894,3.604-4.755
		C137.502,75.882,136.201,74.042,133.872,74.042"/>
	<path fill="#474747" d="M143.944,85.111c-1.483,0-2.122-0.948-2.122-2.225V66.755h1.866v15.287c0,1.15,0.282,1.38,0.998,1.38
		c0.126,0,0.331,0,0.638-0.074l0.23,1.353C144.992,84.984,144.559,85.111,143.944,85.111"/>
	<path fill="#474747" d="M151,85.111c-1.737,0-2.583-1.022-2.583-2.582v-8.182h-1.967v-1.584h1.967v-2.659l1.866-0.638v3.297h3.707
		l-0.665,1.584h-3.042v7.619c0,1.023,0.383,1.482,1.177,1.482c0.868,0,1.661-0.485,2.147-0.869l0.587,1.329
		C153.301,84.573,152.125,85.111,151,85.111"/>
	<path fill="#474747" d="M156.94,79.127c0,2.302,1.329,4.347,4.011,4.347c1.023,0,2.148-0.409,2.863-0.87l0.563,1.279
		c-0.87,0.716-2.403,1.228-3.808,1.228c-3.784,0-5.625-3.094-5.625-6.545c0-3.502,1.994-6.108,4.908-6.108
		c3.117,0,4.832,2.479,4.832,6.236v0.434H156.94z M159.879,74.042c-1.791,0-2.916,1.585-2.916,3.502h5.7
		C162.664,75.858,161.719,74.042,159.879,74.042"/>
	<path fill="#474747" d="M172.909,74.629c-0.255-0.102-0.639-0.205-1.15-0.205c-0.714,0-1.891,0.615-2.658,1.458v8.973h-1.866
		V72.763h1.533l0.258,1.38c1.66-1.508,2.581-1.688,3.449-1.688c0.537,0,0.998,0.205,1.227,0.359L172.909,74.629z"/>
	<path fill="#474747" d="M240.059,79.127c0,2.302,1.328,4.347,4.011,4.347c1.023,0,2.149-0.409,2.864-0.87l0.562,1.279
		c-0.871,0.716-2.403,1.228-3.808,1.228c-3.784,0-5.624-3.094-5.624-6.545c0-3.502,1.994-6.108,4.907-6.108
		c3.118,0,4.832,2.479,4.832,6.236v0.434H240.059z M242.998,74.042c-1.791,0-2.916,1.585-2.916,3.502h5.701
		C245.783,75.858,244.837,74.042,242.998,74.042"/>
	<path fill="#474747" d="M256.027,74.629c-0.255-0.102-0.639-0.205-1.15-0.205c-0.714,0-1.891,0.615-2.658,1.458v8.973h-1.866
		V72.763h1.534l0.256,1.38c1.662-1.508,2.582-1.688,3.449-1.688c0.537,0,0.999,0.205,1.229,0.359L256.027,74.629z"/>
	<path fill="#474747" d="M177.646,85.111c-1.738,0-2.785-0.46-3.578-0.921l0.715-1.457c0.563,0.356,1.611,0.869,2.941,0.869
		c1.482,0,2.557-0.665,2.557-1.79c0-2.965-5.498-1.916-5.498-6.159c0-1.739,1.254-3.195,4.016-3.195c1.277,0,2.248,0.278,3.04,0.638
		v1.637c-0.841-0.356-1.711-0.715-2.966-0.715c-1.227,0-2.248,0.434-2.248,1.533c0,2.709,5.599,2.021,5.599,5.98
		C182.224,84.063,180.128,85.111,177.646,85.111"/>
	<polygon fill="#474747" points="198.764,84.855 192.039,77.238 192.014,77.238 192.014,84.855 190.148,84.855 190.148,68.008 
		192.014,68.008 192.014,75.754 192.039,75.754 198.303,68.06 200.629,68.06 193.699,76.342 201.24,84.855 	"/>
	<path fill="#474747" d="M205.153,85.111c-1.484,0-2.122-0.948-2.122-2.225V66.755h1.865v15.287c0,1.15,0.281,1.38,0.997,1.38
		c0.127,0,0.333,0,0.64-0.074l0.229,1.353C206.2,84.984,205.765,85.111,205.153,85.111"/>
	<path fill="#474747" d="M216.705,84.855l-0.484-1.253c-0.896,0.767-2.302,1.509-3.912,1.509c-1.634,0-3.679-0.843-3.679-4.244
		v-8.104h1.863v7.925c0,2.02,0.844,2.812,2.354,2.812c1.533,0,2.709-0.972,3.22-1.611v-9.126h1.867v7.03
		c0,3.809,0.075,4.55,0.257,5.062H216.705z"/>
	<polygon fill="#474747" points="233.297,84.855 231.608,84.855 228.592,75.166 228.516,75.166 225.525,84.855 223.89,84.855 
		219.85,72.763 221.742,72.763 224.707,82.298 224.783,82.298 227.774,72.763 229.462,72.763 232.479,82.325 232.555,82.325 
		235.469,72.763 237.283,72.763 	"/>
</g>
<g>
	<defs>
		<path id="SVGID_1_" d="M82.887,59.158c-8.22,0.086-14.857,6.776-14.857,15.019c0,8.293,6.724,15.018,15.018,15.018
			c8.294,0,15.018-6.725,15.018-15.018c0-8.242-6.636-14.933-14.856-15.019H82.887z"/>
	</defs>
	<clipPath id="SVGID_2_">
		<use xlink:href="#SVGID_1_"  overflow="visible"/>
	</clipPath>
	<rect x="78.042" y="79.181" clip-path="url(#SVGID_2_)" fill="#9ACD6E" width="10.011" height="10.013"/>
	<rect x="78.042" y="59.157" clip-path="url(#SVGID_2_)" fill="#CAE3B2" width="10.011" height="10.013"/>
	<rect x="68.03" y="69.169" clip-path="url(#SVGID_2_)" fill="#CAE3B2" width="10.013" height="10.012"/>
	<rect x="68.03" y="79.181" clip-path="url(#SVGID_2_)" fill="#429ED6" width="10.013" height="10.013"/>
	<rect x="68.03" y="59.157" clip-path="url(#SVGID_2_)" fill="#A0C4E6" width="10.013" height="10.013"/>
	<rect x="88.054" y="69.169" clip-path="url(#SVGID_2_)" fill="#9ACD6E" width="10.013" height="10.012"/>
	<rect x="88.054" y="79.181" clip-path="url(#SVGID_2_)" fill="#007BC6" width="10.013" height="10.013"/>
	<rect x="88.054" y="59.157" clip-path="url(#SVGID_2_)" fill="#429ED6" width="10.013" height="10.013"/>
	<rect x="78.042" y="69.169" clip-path="url(#SVGID_2_)" fill="#EF3E42" width="10.011" height="10.012"/>
</g>
</svg>
