<svg id="Layer_1" data-name="Layer 1" xmlns="http://www.w3.org/2000/svg" viewBox="0 0 296 136"><defs><style>.cls-1{fill:none;}.cls-2{fill:#007ac3;}</style></defs><title>logo_avanzer-aangifte_color</title><rect class="cls-1" width="296" height="136"/><path class="cls-2" d="M123.66,64.86a10.92,10.92,0,0,0,5.11,1.77l1.63-4.95a5.12,5.12,0,0,1-2.56-1.82,6.33,6.33,0,0,1-.85-3.67V37.54q0-6.49-3.56-10T112.68,24a41.22,41.22,0,0,0-14.09,2.78L100.37,32a36.14,36.14,0,0,1,11-2.17q4.33,0,6.42,1.86c1.4,1.24,2.09,3.3,2.09,6.19v3H113.6q-8.58,0-13.27,3.48t-4.68,10a11.89,11.89,0,0,0,3.48,8.9q3.5,3.41,9.52,3.4,8.05,0,12.15-6.11A8.17,8.17,0,0,0,123.66,64.86ZM119.87,55q-3.48,6.34-9.59,6.35A7,7,0,0,1,105,59.44,7.68,7.68,0,0,1,103.24,54q0-8.37,11.29-8.36h5.34Z"/><path class="cls-2" d="M142.18,88.37a19.62,19.62,0,0,0-3.72-1.49,15.28,15.28,0,0,0-4-.48,10.19,10.19,0,0,0-7,2.42,14.13,14.13,0,0,0-4,6,21.11,21.11,0,0,0-1.28,7.16,10.62,10.62,0,0,0,2,6.8,6.67,6.67,0,0,0,5.52,2.47,7.77,7.77,0,0,0,4.11-1.15,10.79,10.79,0,0,0,3.28-3.19,4.58,4.58,0,0,0,.76,3,4,4,0,0,0,2.44,1.3l.73-1.88a2.44,2.44,0,0,1-1.14-.84,2.7,2.7,0,0,1-.37-1.57,9,9,0,0,1,.14-1.42ZM137.25,104a14.12,14.12,0,0,1-3.27,3.76,6.12,6.12,0,0,1-3.81,1.3,4.51,4.51,0,0,1-3.85-1.8A8.7,8.7,0,0,1,125,102a20.47,20.47,0,0,1,1-6.16,12.33,12.33,0,0,1,3.15-5.2,7.48,7.48,0,0,1,5.41-2.1,10.77,10.77,0,0,1,4.88,1.09Z"/><polygon class="cls-2" points="204.37 59.8 182.85 59.8 204.13 30.39 204.13 24.97 176.59 24.97 176.59 31.01 196.01 31.01 174.81 60.41 174.81 65.75 203.51 65.75 204.37 59.8"/><path class="cls-2" d="M257.38,42.42q1.31-5.88,3.63-8.67A7.57,7.57,0,0,1,267.12,31a14.59,14.59,0,0,1,3.56.47l1.32-7a17.06,17.06,0,0,0-4-.46,9.81,9.81,0,0,0-6.5,2.32,15.46,15.46,0,0,0-4.41,6.89l-.7-8.28h-6.11V65.71h7.12Z"/><polygon class="cls-2" points="77.16 59.36 66.48 24.93 58.74 24.93 72.83 65.71 81.42 65.71 95.27 24.93 87.76 24.93 77.16 59.36"/><path class="cls-2" d="M56.19,59.86a6.33,6.33,0,0,1-.85-3.67V37.54q0-6.49-3.56-10T41,24a41.21,41.21,0,0,0-14.08,2.78L28.72,32a36.08,36.08,0,0,1,11-2.17q4.34,0,6.42,1.86t2.09,6.19v3H42q-8.58,0-13.27,3.48T24,54.33a11.89,11.89,0,0,0,3.48,8.9Q31,66.64,37,66.63q8,0,12.15-6.11A8.17,8.17,0,0,0,52,64.86a10.88,10.88,0,0,0,5.11,1.77l1.62-4.95A5.13,5.13,0,0,1,56.19,59.86Zm-8-4.91q-3.48,6.34-9.6,6.35a7,7,0,0,1-5.26-1.86A7.68,7.68,0,0,1,31.58,54q0-8.37,11.3-8.36h5.34Z"/><path class="cls-2" d="M222.72,77a2.1,2.1,0,0,0-.6,1.53,1.61,1.61,0,0,0,.5,1.2,1.86,1.86,0,0,0,1.33.48,2,2,0,0,0,1.53-.61,2.16,2.16,0,0,0,.57-1.53,1.61,1.61,0,0,0-.5-1.21,1.86,1.86,0,0,0-1.33-.48A2,2,0,0,0,222.72,77Z"/><polygon class="cls-2" points="218.2 110.77 220.8 110.77 224.18 86.91 221.57 86.91 218.2 110.77"/><path class="cls-2" d="M246.13,89.05h5.79l.59-2.14h-6l.28-1.76a6.62,6.62,0,0,0-1-4.93,7.62,7.62,0,0,0-4.33-3,7.14,7.14,0,0,0-2-.34,7.55,7.55,0,0,0-4.85,1.61,6.59,6.59,0,0,0-2.32,4.45l-.55,4h-7.62L223.87,89h7.61l-2.92,20.86a14.62,14.62,0,0,1-1.08,4.06,6.32,6.32,0,0,1-1.8,2.35,16.27,16.27,0,0,1-3,1.71l.77,2a20,20,0,0,0,4-2.23,8.29,8.29,0,0,0,2.36-2.92,16.32,16.32,0,0,0,1.32-4.93l2.92-21h9.4l-2.24,15.88a7.71,7.71,0,0,0-.09,1.37,4.86,4.86,0,0,0,1.35,3.7,5.24,5.24,0,0,0,3.76,1.27,10.25,10.25,0,0,0,5.16-1.46l-.91-2a8.36,8.36,0,0,1-3.84,1.14,3,3,0,0,1-2.19-.68,3,3,0,0,1-.68-2.15,6.91,6.91,0,0,1,.09-1.27ZM234.4,86.91l.5-3.79q.6-4.07,4.84-4.06a4.68,4.68,0,0,1,4.53,5.53l-.43,2.32Z"/><path class="cls-2" d="M270,88a8.14,8.14,0,0,0-5.34-1.62A9.91,9.91,0,0,0,258,88.73a13.83,13.83,0,0,0-4,5.84,20.79,20.79,0,0,0-1.28,7.12c0,3,.76,5.4,2.26,7.07a8.16,8.16,0,0,0,6.41,2.51,12.39,12.39,0,0,0,4.18-.7,16.05,16.05,0,0,0,4-2.12l-1.24-1.88A14.44,14.44,0,0,1,265,108.4a9.45,9.45,0,0,1-3.42.59,5.74,5.74,0,0,1-4.5-1.8q-1.62-1.8-1.62-5.54v-.28q7.89-.59,12.21-2.74T272,92.15A5.12,5.12,0,0,0,270,88Zm-4.2,9.06q-3.37,1.69-10.22,2.24a16.19,16.19,0,0,1,2.8-7.58,7.3,7.3,0,0,1,6.28-3.15,4.85,4.85,0,0,1,3.38,1,3.4,3.4,0,0,1,1.14,2.61C269.22,94.34,268.09,96,265.84,97.08Z"/><path class="cls-2" d="M166.63,88.37a19.62,19.62,0,0,0-3.72-1.49,15.15,15.15,0,0,0-4-.48,10.19,10.19,0,0,0-7,2.42,14.24,14.24,0,0,0-4,6,21.34,21.34,0,0,0-1.27,7.16,10.62,10.62,0,0,0,2,6.8,6.66,6.66,0,0,0,5.52,2.46,7.76,7.76,0,0,0,4.11-1.14,10.9,10.9,0,0,0,3.28-3.19,4.53,4.53,0,0,0,.76,3,3.93,3.93,0,0,0,2.44,1.3l.73-1.87a2.44,2.44,0,0,1-1.14-.84,2.71,2.71,0,0,1-.37-1.58,9,9,0,0,1,.14-1.41ZM161.7,104a13.92,13.92,0,0,1-3.26,3.76,6.12,6.12,0,0,1-3.81,1.3,4.51,4.51,0,0,1-3.85-1.8,8.7,8.7,0,0,1-1.35-5.27,20.47,20.47,0,0,1,1-6.16,12.13,12.13,0,0,1,3.15-5.2,7.46,7.46,0,0,1,5.41-2.1,10.77,10.77,0,0,1,4.88,1.09Z"/><path class="cls-2" d="M184.39,86.4a8.2,8.2,0,0,0-4.91,1.69,15.86,15.86,0,0,0-4.13,4.75l.59-5.93h-2.19l-3.37,23.86H173l2-14.28a22.44,22.44,0,0,1,4.16-5.73,6.79,6.79,0,0,1,4.7-2.12q3.51,0,3.51,3.83a8.69,8.69,0,0,1-.14,1.56l-2.37,16.74h2.65l2.37-16.84a11.52,11.52,0,0,0,.14-1.68,6,6,0,0,0-1.48-4.32A5.49,5.49,0,0,0,184.39,86.4Z"/><path class="cls-2" d="M240.89,61.53l-3.09-4.26A22,22,0,0,1,232.61,60a16.46,16.46,0,0,1-5.41.85,9.86,9.86,0,0,1-7.59-3.17q-2.94-3.16-3.4-9.91h26q.15-1.84.15-3.63,0-9.45-4.33-14.78T225.57,24a14.93,14.93,0,0,0-9,2.78,17.62,17.62,0,0,0-5.88,7.7,29,29,0,0,0-2.05,11.26q0,9.75,4.75,15.32t13.27,5.57A22.56,22.56,0,0,0,240.89,61.53ZM225.73,29.65c3.2,0,5.59,1.06,7.19,3.17s2.4,5.18,2.4,9.21v.46H216.21Q217,29.65,225.73,29.65Z"/><path class="cls-2" d="M156.27,24a13.87,13.87,0,0,0-7.08,1.86,16,16,0,0,0-5.37,5.1l-.62-6h-6.12V65.71h7.12V36.77a19.49,19.49,0,0,1,4.65-5.34,9.27,9.27,0,0,1,5.72-1.86,6.19,6.19,0,0,1,4.8,1.78Q161,33.14,161,37.46V65.71h7.12V36.46q0-5.8-3.13-9.13T156.27,24Z"/><path class="cls-2" d="M206.47,86.4a10.47,10.47,0,0,0-7,2.31,13.65,13.65,0,0,0-4.06,5.77,19.82,19.82,0,0,0-1.3,7,10.6,10.6,0,0,0,2,6.78,6.77,6.77,0,0,0,5.59,2.48,7.61,7.61,0,0,0,3.95-1.09,11.32,11.32,0,0,0,3.27-3l-.6,4q-1,7.29-7.44,7.3a11.46,11.46,0,0,1-3.51-.53A18.74,18.74,0,0,1,194.1,116l-1,2a16.72,16.72,0,0,0,3.75,1.62,14.39,14.39,0,0,0,4.15.62q8.58,0,10-9.63l3.24-22.22a19.62,19.62,0,0,0-3.72-1.49A15.15,15.15,0,0,0,206.47,86.4Zm2.88,17.16q-3.24,5-7.21,5a4.55,4.55,0,0,1-3.84-1.8,8.35,8.35,0,0,1-1.37-5.13,18.17,18.17,0,0,1,1-6.07,11.83,11.83,0,0,1,3.17-5,7.73,7.73,0,0,1,5.46-2,11.35,11.35,0,0,1,2.6.27,12.26,12.26,0,0,1,2.28.82Z"/></svg>