<?xml version="1.0" encoding="utf-8"?>
<!-- Generator: Adobe Illustrator 12.0.0, SVG Export Plug-In . SVG Version: 6.00 Build 51448)  -->
<!DOCTYPE svg PUBLIC "-//W3C//DTD SVG 1.1//EN" "http://www.w3.org/Graphics/SVG/1.1/DTD/svg11.dtd" [
	<!ENTITY ns_svg "http://www.w3.org/2000/svg">
	<!ENTITY ns_xlink "http://www.w3.org/1999/xlink">
]>
<svg  version="1.1" id="Layer_1" xmlns="&ns_svg;" xmlns:xlink="&ns_xlink;" width="221.827" height="34.014"
	 viewBox="0 0 221.827 34.014" overflow="visible" enable-background="new 0 0 221.827 34.014" xml:space="preserve">
<g>
	<circle fill="#1A2938" cx="3.028" cy="3.028" r="3.028"/>
	<g>
		<circle fill="#1A2938" cx="218.799" cy="30.987" r="3.027"/>
		<g>
			<path fill="#1A2938" d="M35.688,0.816v4.491H25.255v27.931h-5.297V5.308H9.524V0.816H35.688z"/>
			<path fill="#1A2938" d="M44.853,0.816v32.422h-5.265V0.816H44.853z"/>
			<path fill="#1A2938" d="M54.44,0.816l11.474,25.163L77.387,0.816h5.038v32.422h-5.298V14.167l-8.743,19.072h-4.94l-8.742-19.072
				v19.072h-5.298V0.816H54.44z"/>
			<path fill="#1A2938" d="M115.136,4.984c1.549,1.426,2.779,3.179,3.689,5.261s1.365,4.343,1.365,6.783s-0.455,4.701-1.365,6.782
				c-0.91,2.083-2.141,3.834-3.689,5.26s-3.363,2.539-5.443,3.338c-2.08,0.801-4.279,1.199-6.598,1.199s-4.518-0.398-6.598-1.199
				c-2.08-0.799-3.896-1.912-5.444-3.338s-2.778-3.178-3.688-5.26C86.455,21.729,86,19.469,86,17.028s0.455-4.701,1.365-6.783
				s2.14-3.835,3.688-5.261c1.549-1.425,3.364-2.537,5.444-3.337s4.279-1.2,6.598-1.2s4.518,0.4,6.598,1.199
				C111.773,2.447,113.587,3.56,115.136,4.984z M103.095,5.461c-3.488,0-6.295,0.984-8.418,2.953
				c-2.254,2.092-3.38,4.963-3.38,8.613s1.126,6.521,3.38,8.614c2.123,1.969,4.93,2.953,8.418,2.953s6.294-0.984,8.418-2.953
				c2.253-2.092,3.38-4.963,3.38-8.614s-1.127-6.521-3.38-8.613C109.389,6.445,106.583,5.461,103.095,5.461z"/>
			<path fill="#1A2938" d="M147.655,0.816v4.491h-10.434v27.931h-5.297V5.308h-10.434V0.816H147.655z"/>
			<path fill="#1A2938" d="M156.168,0.816v13.658h15.602V0.816h5.266v32.422h-5.266V19.181h-15.602v14.058h-5.264V0.816H156.168z"/>
			<path fill="#1A2938" d="M186.623,0.816l9.653,13.781l9.652-13.781h6.663l-13.65,19.072v13.35h-5.298v-13.35L179.959,0.816
				H186.623z"/>
		</g>
		<rect x="0.367" y="9.79" fill="#1A2938" width="5.265" height="23.451"/>
		<rect x="216.155" y="0.82" fill="#1A2938" width="5.266" height="23.45"/>
	</g>
</g>
</svg>
