<?xml version="1.0" encoding="UTF-8"?>
<svg width="680px" height="114px" viewBox="0 0 680 114" version="1.1" xmlns="http://www.w3.org/2000/svg" xmlns:xlink="http://www.w3.org/1999/xlink">
    <!-- Generator: Sketch 52.5 (67469) - http://www.bohemiancoding.com/sketch -->
    <title>wehkamp-wordmark</title>
    <desc>Created with Sketch.</desc>
    <g id="logo" stroke="none" stroke-width="1" fill="none" fill-rule="evenodd">
        <g id="wehkamp_wordmark" transform="translate(-80.000000, -93.000000)" fill="#FF5555">
            <path d="M234.66594,143.459481 L283.834265,143.459481 C280.962183,132.479364 271.029027,124.358379 259.250601,124.358379 C247.472174,124.358379 237.539018,132.479364 234.66594,143.459481 Z M259.250601,188.698933 C238.087316,188.698933 220.869779,171.336031 220.869779,149.994069 C220.869779,128.652106 238.087316,111.289204 259.250601,111.289204 C280.413885,111.289204 297.631422,128.652106 297.631422,149.994069 L297.631422,156.528656 L234.66594,156.528656 C237.539018,167.508774 247.472174,175.629758 259.250601,175.629758 L259.250601,188.698933 Z M530.426759,169.128346 C530.426759,173.687477 533.982717,178.091789 535.353461,179.404739 L526.527865,188.974391 C525.856949,188.349081 521.424711,184.029216 519.019181,177.497645 C512.081723,184.41727 502.551316,188.698933 492.045937,188.698933 C470.882652,188.698933 453.665115,171.336031 453.665115,149.994069 C453.665115,128.652106 470.882652,111.289204 492.045937,111.289204 C501.789681,111.289204 510.691041,114.975717 517.467001,121.030766 L517.467001,112.318653 L530.426759,112.318653 L530.426759,169.128346 Z M492.045937,175.629758 C506.06341,175.629758 517.467001,164.129889 517.467001,149.994069 C517.467001,135.858248 506.06341,124.358379 492.045937,124.358379 C478.028463,124.358379 466.624873,135.858248 466.624873,149.994069 C466.624873,164.129889 478.028463,175.629758 492.045937,175.629758 Z M341.338206,111.264675 C361.15567,111.264675 377.278606,127.523734 377.278606,147.508513 L377.278606,187.681146 L364.318848,187.681146 L364.318848,147.508513 C364.318848,134.729875 354.009859,124.33385 341.338206,124.33385 C328.666554,124.33385 318.357565,134.729875 318.357565,147.508513 L318.357565,187.681146 L305.397807,187.681146 L305.397807,147.508513 L305.397807,93 L318.357565,93 L318.357565,119.667149 C324.592205,114.425404 332.605323,111.264675 341.338206,111.264675 Z M440.92348,167.752665 C444.397692,171.127528 450.968289,175.822377 454.877151,175.822377 L454.877151,188.891552 C444.135506,188.891552 433.013043,178.232132 431.779872,177.015694 L431.596441,176.826693 C425.864241,170.696245 413.107851,157.00176 408.63175,152.194314 L400.297629,160.222809 L400.297629,187.669082 L387.337871,187.669082 L387.337871,93 L400.297629,93 L400.297629,142.149146 L431.290392,112.294123 L450.053131,112.294123 L418.003649,143.166531 C422.379063,147.866407 435.114517,161.53978 440.92348,167.752665 Z M721.619178,111.301469 C742.782463,111.301469 760,128.664371 760,150.006334 C760,171.348296 742.782463,188.711198 721.619178,188.711198 C711.875434,188.711198 702.974074,185.024685 696.198114,178.969636 L696.198114,207 L683.238356,207 L683.238356,112.318854 L696.198114,112.318854 L696.198114,121.043031 C702.974074,114.987982 711.875434,111.301469 721.619178,111.301469 Z M721.619178,175.642023 C735.636652,175.642023 747.040242,164.142154 747.040242,150.006334 C747.040242,135.870513 735.636652,124.370644 721.619178,124.370644 C707.600708,124.370644 696.198114,135.870513 696.198114,150.006334 C696.198114,164.142154 707.600708,175.642023 721.619178,175.642023 Z M637.238692,111.27694 C657.057153,111.27694 673.180089,127.535998 673.180089,147.520778 L673.180089,187.693411 L660.220331,187.693411 L660.220331,147.520778 C660.220331,134.74214 649.910345,124.346114 637.238692,124.346114 C624.567039,124.346114 614.25805,134.74214 614.25805,147.520778 L614.25805,187.693411 L601.298292,187.693411 L601.298292,147.520778 C601.298292,134.74214 590.989303,124.346114 578.318647,124.346114 C565.646995,124.346114 555.337009,134.74214 555.337009,147.520778 L555.337009,187.693411 L542.377251,187.693411 L542.377251,147.520778 L542.377251,112.306388 L555.337009,112.306388 L555.337009,119.679414 C561.571649,114.437669 569.584767,111.27694 578.318647,111.27694 C590.497829,111.27694 601.275363,117.424478 607.778171,126.798093 C614.281976,117.424478 625.058513,111.27694 637.238692,111.27694 Z M209.472967,112.306087 L223.59711,112.306087 L191.26052,187.536279 L191.322328,187.681045 L191.198712,187.681045 L177.198185,187.681045 L177.073572,187.681045 L177.13538,187.536279 L151.798056,128.591284 L126.461729,187.536279 L126.523538,187.681045 L126.399921,187.681045 L112.398398,187.681045 L112.273785,187.681045 L112.33659,187.536279 L80,112.306087 L94.1241425,112.306087 L119.398661,171.106315 L144.674177,112.306087 L144.797793,112.306087 L158.79832,112.306087 L158.922933,112.306087 L184.198448,171.106315 L209.472967,112.306087 Z" id="wehkamp-wordmark"></path>
        </g>
    </g>
</svg>