<?xml version="1.0" encoding="utf-8"?>
<!-- Generator: Adobe Illustrator 12.0.0, SVG Export Plug-In . SVG Version: 6.00 Build 51448)  -->
<!DOCTYPE svg PUBLIC "-//W3C//DTD SVG 1.1//EN" "http://www.w3.org/Graphics/SVG/1.1/DTD/svg11.dtd" [
	<!ENTITY ns_svg "http://www.w3.org/2000/svg">
	<!ENTITY ns_xlink "http://www.w3.org/1999/xlink">
]>
<svg  version="1.1" id="Layer_1" xmlns="&ns_svg;" xmlns:xlink="&ns_xlink;" width="256.399" height="235"
	 viewBox="0 0 256.399 235" overflow="visible" enable-background="new 0 0 256.399 235" xml:space="preserve">
<g>
	<path fill-rule="evenodd" clip-rule="evenodd" fill="#1A2938" d="M118,0c19.615,4.436,22.325,3.47,33,19
		c1.333-0.333,2.667-0.667,4-1c0-2,0-4,0-6c0.333,0.667,0.667,1.333,1,2c17.443,8.153,27.241,31.476,27,58
		c-6.206,3.975-9.135,6.408-12,14c-19.212-7.986-30.067,24.187-54,18c-7-2.167-8.437-7.604-13-12c-1.667,0.333-3.333,0.667-5,1
		c-1.333,7.333-2.667,14.667-4,22c-0.667,0.333-1.333,0.667-2,1c-8.457-3.458-23.422,0.591-33-6c-2.826-20.108-7.659-38.661-12-61
		c5.853-9.566,14.213-20.362,24-26c-0.667-1.667-1.333-3.333-2-5c7.333-2.667,14.667-5.333,22-8c2.992,4.637,6.496,3.631,15,3
		c-0.333-0.667-0.667-1.333-1-2c-3.582-1.207-6.951-2.13-9-4c7.218-2.113,8.816-3.926,14-1C114.809,3.693,116.148,4.716,118,0z"/>
	<path fill-rule="evenodd" clip-rule="evenodd" fill="#FFFFFF" d="M115,37c-9.999,3-20.001,6-30,9c-7.333,6.666-14.667,13.334-22,20
		c0.333,9.999,0.667,20.001,1,30c0.667-0.333,1.333-0.667,2-1c8.369-18.147,23.601-5.474,35-7c2-0.667,4-1.333,6-2
		c-1.588-3.396-1.648-3.678-1-8c8.109-0.625,6.038-2.934,10-5c4.968-2.591,39.971,2.991,50,3C160.784,50.238,150.792,35.926,115,37z
		"/>
	<path fill-rule="evenodd" clip-rule="evenodd" fill="#FFFFFF" d="M111,87c-1,1.333-2,2.667-3,4c0,0.667,0,1.333,0,2
		c0.333,0.333,0.667,0.667,1,1c1.667,0,3.333,0,5,0c-2.14,5.525-2.483,2.74,1,8c0.333,0,0.667,0,1,0c12.206,0.354,21.433-2.615,28-8
		c0-0.333,0-0.667,0-1c-0.667-0.333-1.333-0.667-2-1c-4.999,0-10.001,0-15,0c0,1,0,2,0,3c1,0.667,2,1.333,3,2
		c-5.76,0.178-9.729-0.388-13-2C115,92.333,113,89.667,111,87z"/>
	<path fill-rule="evenodd" clip-rule="evenodd" fill="#FFFFFF" d="M80,106c-4.13,2.726-9.076,1.64-15,1c1.622,3.202,1.849,4.188,5,6
		c6.041,1.847,18.639-2.431,23-6c-3.667,1-7.333,2-11,3c-0.333-0.667-0.667-1.333-1-2c0.667-0.667,1.333-1.333,2-2
		C82,106,81,106,80,106z"/>
	<path fill-rule="evenodd" clip-rule="evenodd" fill="#1A2938" d="M124,113c9.785,0.81,18.512,6.813,20,16
		C136.056,124.492,128.906,120.587,124,113z"/>
	<path fill-rule="evenodd" clip-rule="evenodd" fill="#1A2938" d="M256,235c-85.325,0-170.675,0-256,0c0-0.333,0-0.667,0-1
		c0.667-0.667,1.333-1.333,2-2c4.842-10.019,12.279-9.6,22-15c3.333-4.999,6.667-10.001,10-15c0.333,0,0.667,0,1,0
		c0.333,2,0.667,4,1,6c14.305-4.041,18.118-7.92,22-22c5.858-0.354,6.104-1.389,10-3c0.333,1.333,0.667,2.667,1,4
		c9.27-3.43,19.016-6.263,25-13c-10.098-9.718-8.347-13.435-14-26c4.789,2.401,6.194,6.859,9,11c1.333-1,2.667-2,4-3
		c0-2.333,0-4.667,0-7c-2,0-4,0-6,0c-0.333-0.667-0.667-1.333-1-2c-0.469-10.909,0.704-20.798,6-26c5.317,3.886,16.205,4.925,22,8
		c-0.333,1.333-0.667,2.667-1,4c-4.167,0.222-5.998-0.058-8,5c11.332-0.667,22.668-1.333,34-2c0,1.333,0,2.667,0,4
		c-2,0.333-4,0.667-6,1c-5.795-8.744-26.285,1.044-30,5c0.333,0.667,0.667,1.333,1,2c6.333-0.333,12.667-0.667,19-1
		c-0.333,0.667-0.667,1.333-1,2c-5.666,1.666-11.334,3.334-17,5c1.333,2.333,2.667,4.667,4,7c5,0,10,0,15,0c0,0.333,0,0.667,0,1
		c-0.333,0.667-0.667,1.333-1,2c-8.814,1.949-17.478,3.841-23,9c0.667,1,1.333,2,2,3c7.032,0.831,33.723,4.438,42,0
		c7.845-4.207,13.599-14.089,23-19c-4,7.666-8,15.334-12,23c0.333,0,0.667,0,1,0c2-1.666,4-3.334,6-5c0.333,0,0.667,0,1,0
		c0.244,5.276,0.102,9.354-2,12c-2.968-1.788-2.713-2.7-6-2c-4.69,1.651-16.686,14.826-18,20c1.333,0,2.667,0,4,0
		c3.42-1.896,6.227-4.184,10-3c4.463,1.385,4.143,2.499,7,5c2.666-1,5.334-2,8-3c-0.36,7.172-0.089,13.387,3,17c0.333,0,0.667,0,1,0
		c2.478-5.023,5.477-6.045,7-13c-3.805-0.399-1.243,1.124-4-1c10.272-20.564,16.59-18.171,17-53c4,3.666,8,7.334,12,11
		c2.333-0.667,4.667-1.333,7-2c2.666,3.666,5.334,7.334,8,11c4.333,0.333,8.667,0.667,13,1c-0.667,1-1.333,2-2,3
		c10.505,0.265,10.792,7.37,20,2c-4.472-1.308-2.009,0.662-4-3c4-1.333,8-2.667,12-4c0.448,15.061,1.557,29.26-4,37
		c1.333-0.333,2.667-0.667,4-1C256,217.666,256,226.334,256,235z"/>
	<path fill-rule="evenodd" clip-rule="evenodd" fill="#1A2938" d="M97,153c0.453,6.063,1.51,8.162,5,11c0.333,0,0.667,0,1,0
		c0-1.666,0-3.334,0-5C101,157,99,155,97,153z"/>
	<path fill-rule="evenodd" clip-rule="evenodd" fill="#1A2938" d="M52,190c-1.388,4.248-11.845,7.565-17,11
		C38.17,193.615,45.899,194.144,52,190z"/>
</g>
</svg>
