<?xml version="1.0" encoding="utf-8"?>
<!-- Generator: Adobe Illustrator 12.0.0, SVG Export Plug-In . SVG Version: 6.00 Build 51448)  -->
<!DOCTYPE svg PUBLIC "-//W3C//DTD SVG 1.0//EN" "http://www.w3.org/TR/2001/REC-SVG-20010904/DTD/svg10.dtd" [
	<!ENTITY ns_svg "http://www.w3.org/2000/svg">
	<!ENTITY ns_xlink "http://www.w3.org/1999/xlink">
]>
<svg  version="1.0"
	 id="svg2" xmlns:cc="http://creativecommons.org/ns#" xmlns:sodipodi="http://sodipodi.sourceforge.net/DTD/sodipodi-0.dtd" xmlns:inkscape="http://www.inkscape.org/namespaces/inkscape" xmlns:dc="http://purl.org/dc/elements/1.1/" xmlns:rdf="http://www.w3.org/1999/02/22-rdf-syntax-ns#" xmlns:svg="http://www.w3.org/2000/svg" inkscape:version="0.48.4 r9939" sodipodi:docname="linkedin.svg"
	 xmlns="&ns_svg;" xmlns:xlink="&ns_xlink;" width="1200" height="1200" viewBox="0 0 1200 1200"
	 overflow="visible" enable-background="new 0 0 1200 1200" xml:space="preserve">
<g>
	<g>
		<path fill="#FFFFFF" d="M648.193,1008.472V716.676c0.254-14.548,1.024-29.135,6.372-41.821
			c19.59-39.421,48.198-62.997,88.77-63.428c69.225,2.116,87.141,65.69,87.524,117.993v279.053h172.559V709.058
			c-1.505-65.829-15.022-130.579-57.129-177.539c-40.519-41.303-89.835-56.805-142.09-57.129
			c-38.311,0.641-73.801,8.724-103.345,29.809c-21.782,15.899-38.021,35.647-52.661,56.471v-73.535H475.708
			c0.846,14.376,1.245,42.277,1.245,83.716c0.322,145.879-0.585,291.745-1.245,437.622H648.193z M291.724,416.089h1.318
			c54.661-1.167,98.648-39.612,97.632-90.088c-2.037-56.763-48.856-89.553-96.387-90.088c-55.078,1.185-97.034,40.175-97.705,90.088
			C198.712,381.933,244.667,415.546,291.724,416.089z M1200,0v1200H0v2.379h1202.379V0H1200z M206.763,1008.472h172.485V487.135
			H206.763V1008.472z"/>
	</g>
</g>
</svg>
