<?xml version="1.0" encoding="utf-8"?>
<!-- Generator: Adobe Illustrator 12.0.0, SVG Export Plug-In . SVG Version: 6.00 Build 51448)  -->
<!DOCTYPE svg PUBLIC "-//W3C//DTD SVG 1.0//EN" "http://www.w3.org/TR/2001/REC-SVG-20010904/DTD/svg10.dtd" [
	<!ENTITY ns_svg "http://www.w3.org/2000/svg">
	<!ENTITY ns_xlink "http://www.w3.org/1999/xlink">
]>
<svg  version="1.0"
	 id="svg2" xmlns:cc="http://creativecommons.org/ns#" xmlns:sodipodi="http://sodipodi.sourceforge.net/DTD/sodipodi-0.dtd" xmlns:inkscape="http://www.inkscape.org/namespaces/inkscape" xmlns:dc="http://purl.org/dc/elements/1.1/" xmlns:rdf="http://www.w3.org/1999/02/22-rdf-syntax-ns#" xmlns:svg="http://www.w3.org/2000/svg" inkscape:version="0.48.4 r9939" sodipodi:docname="twitter.svg"
	 xmlns="&ns_svg;" xmlns:xlink="&ns_xlink;" width="1200" height="1200" viewBox="0 0 1200 1200"
	 overflow="visible" enable-background="new 0 0 1200 1200" xml:space="preserve">
<path id="path24592" inkscape:connector-curvature="0" fill="#FFFFFF" d="M1200,216.994c-8.026,16.946-22.966,38.352-44.816,64.214
	c-21.85,25.863-48.829,48.606-80.937,68.228c0.893,7.135,1.562,13.823,2.007,20.066c3.463,96.12-19.56,195.848-51.505,278.931
	c-61.918,154.472-156.795,278.795-292.309,363.21c-141.313,81.057-305.891,98.297-457.524,83.611
	C174.25,1083.693,75.033,1050.821,0,988.9c137.233,16.405,265.305-30.28,366.555-105.686
	C254.083,886.06,172.364,804.7,133.78,710.639c17.393,4.558,35.588,4.008,52.174,2.676c20.416-1.918,39.796-3.833,58.863-8.026
	C173.1,682.15,110.348,639.614,77.593,575.522C58.38,534.912,49.705,496.24,49.5,452.445
	c33.605,17.694,74.028,34.938,111.037,33.445c-55.892-47.347-100.7-107.858-109.03-177.258
	c-5.259-57.866,9.221-110.689,30.101-159.866c83.607,91.885,177.415,167.502,285.618,214.047
	c73.998,30.302,147.786,46.507,224.081,46.823c-8.807-68.146-1.959-134.051,30.101-189.968
	c37.73-60.117,92.778-94.997,154.516-112.375c88.337-22.651,174.496,9.346,228.763,70.903
	c58.521-6.321,114.58-32.283,159.197-58.863c-18.958,57.41-55.874,114.492-109.699,141.807
	C1105.432,251.65,1154.334,236.479,1200,216.994z"/>
</svg>
